{
  "accessors": [
    {
      "bufferView": 2,
      "componentType": 5126,
      "count": 44010,
      "max": [
        0.3150174617767334,
        0.21267592906951904,
        0.23317119479179382
      ],
      "min": [
        -0.11496719717979431,
        -0.11818630993366241,
        -0.3116016089916229
      ],
      "type": "VEC3"
    },
    {
      "bufferView": 2,
      "byteOffset": 528120,
      "componentType": 5126,
      "count": 44010,
      "max": [
        0.9999287128448486,
        0.9999760389328003,
        0.9999625086784363
      ],
      "min": [
        -0.999977171421051,
        -0.9999719858169556,
        -0.9999294281005859
      ],
      "type": "VEC3"
    },
    {
      "bufferView": 1,
      "componentType": 5126,
      "count": 44010,
      "max": [
        0.99994957447052,
        0.9989843368530273
      ],
      "min": [
        0.0021384397987276316,
        0.0029179819393903017
      ],
      "type": "VEC2"
    },
    {
      "bufferView": 1,
      "byteOffset": 352080,
      "componentType": 5126,
      "count": 44010,
      "max": [
        0.99994957447052,
        0.9989843368530273
      ],
      "min": [
        0.0021384397987276316,
        0.0029179819393903017
      ],
      "type": "VEC2"
    },
    {
      "bufferView": 1,
      "byteOffset": 704160,
      "componentType": 5126,
      "count": 44010,
      "max": [
        0.99994957447052,
        0.9989843368530273
      ],
      "min": [
        0.0021384397987276316,
        0.0029179819393903017
      ],
      "type": "VEC2"
    },
    {
      "bufferView": 1,
      "byteOffset": 1056240,
      "componentType": 5126,
      "count": 44010,
      "max": [
        0.99994957447052,
        0.9989843368530273
      ],
      "min": [
        0.0021384397987276316,
        0.0029179819393903017
      ],
      "type": "VEC2"
    },
    {
      "bufferView": 1,
      "byteOffset": 1408320,
      "componentType": 5126,
      "count": 44010,
      "max": [
        0.99994957447052,
        0.9989843368530273
      ],
      "min": [
        0.0021384397987276316,
        0.0029179819393903017
      ],
      "type": "VEC2"
    },
    {
      "bufferView": 0,
      "componentType": 5125,
      "count": 175107,
      "type": "SCALAR"
    }
  ],
  "asset": {
    "extras": {
      "author": "alban (https://sketchfab.com/alban)",
      "license": "CC-BY-4.0 (http://creativecommons.org/licenses/by/4.0/)",
      "source": "https://sketchfab.com/3d-models/strawberries-from-the-farm-8d8b8ebdb8414aa6895dbf37ddba319d",
      "title": "Strawberries from the farm"
    },
    "generator": "Sketchfab-13.31.0",
    "version": "2.0"
  },
  "bufferViews": [
    {
      "buffer": 0,
      "byteLength": 700428,
      "name": "floatBufferViews",
      "target": 34963
    },
    {
      "buffer": 0,
      "byteLength": 1760400,
      "byteOffset": 700428,
      "byteStride": 8,
      "name": "floatBufferViews",
      "target": 34962
    },
    {
      "buffer": 0,
      "byteLength": 1056240,
      "byteOffset": 2460828,
      "byteStride": 12,
      "name": "floatBufferViews",
      "target": 34962
    }
  ],
  "buffers": [
    {
      "byteLength": 3517068,
      "uri": ".bin"
    }
  ],
  "extensionsUsed": [
    "KHR_materials_unlit"
  ],
  "images": [
    {
      "uri": "textures/material_0_baseColor.jpeg"
    }
  ],
  "materials": [
    {
      "extensions": {
        "KHR_materials_unlit": {}
      },
      "name": "material_0",
      "pbrMetallicRoughness": {
        "baseColorTexture": {
          "index": 0
        },
        "metallicFactor": 0.0
      }
    }
  ],
  "meshes": [
    {
      "name": "Object_0",
      "primitives": [
        {
          "attributes": {
            "NORMAL": 1,
            "POSITION": 0,
            "TEXCOORD_0": 2,
            "TEXCOORD_1": 3,
            "TEXCOORD_2": 4,
            "TEXCOORD_3": 5,
            "TEXCOORD_4": 6
          },
          "indices": 7,
          "material": 0,
          "mode": 4
        }
      ]
    }
  ],
  "nodes": [
    {
      "children": [
        1
      ],
      "matrix": [
        0.9950527548789978,
        -0.09934791922569275,
        -2.205966947459287e-17,
        0.0,
        0.0,
        2.220446049250313e-16,
        -1.0,
        0.0,
        0.09934791922569275,
        0.9950527548789978,
        2.2094609583667109e-16,
        0.0,
        0.0,
        0.0,
        0.0,
        1.0
      ],
      "name": "Sketchfab_model"
    },
    {
      "children": [
        2
      ],
      "name": "root"
    },
    {
      "children": [
        3
      ],
      "matrix": [
        1.0,
        0.0,
        0.0,
        0.0,
        0.0,
        2.220446049250313e-16,
        1.0,
        0.0,
        0.0,
        -1.0,
        2.220446049250313e-16,
        0.0,
        0.0,
        0.0,
        0.0,
        1.0
      ],
      "name": "GLTF_SceneRootNode"
    },
    {
      "children": [
        4
      ],
      "name": "_0"
    },
    {
      "mesh": 0,
      "name": "Object_4"
    }
  ],
  "samplers": [
    {
      "magFilter": 9729,
      "minFilter": 9987,
      "wrapS": 10497,
      "wrapT": 10497
    }
  ],
  "scene": 0,
  "scenes": [
    {
      "name": "Sketchfab_Scene",
      "nodes": [
        0
      ]
    }
  ],
  "textures": [
    {
      "sampler": 0,
      "source": 0
    }
  ]
}
