{
  "accessors": [
    {
      "bufferView": 1,
      "componentType": 5126,
      "count": 65532,
      "max": [
        63.0,
        61.0,
        28.0
      ],
      "min": [
        -63.0,
        -61.0,
        1.0
      ],
      "type": "VEC3"
    },
    {
      "bufferView": 1,
      "byteOffset": 786384,
      "componentType": 5126,
      "count": 65532,
      "max": [
        0.0,
        1.0,
        1.0
      ],
      "min": [
        0.0,
        0.0,
        0.0
      ],
      "type": "VEC3"
    },
    {
      "bufferView": 2,
      "componentType": 5126,
      "count": 65532,
      "max": [
        0.8666666746139526,
        1.0,
        0.8666666746139526,
        1.0
      ],
      "min": [
        0.0,
        0.0,
        0.0,
        1.0
      ],
      "type": "VEC4"
    },
    {
      "bufferView": 0,
      "componentType": 5125,
      "count": 153816,
      "type": "SCALAR"
    },
    {
      "bufferView": 1,
      "byteOffset": 1572768,
      "componentType": 5126,
      "count": 65532,
      "max": [
        63.0,
        61.0,
        28.0
      ],
      "min": [
        -63.0,
        -61.0,
        0.0
      ],
      "type": "VEC3"
    },
    {
      "bufferView": 1,
      "byteOffset": 2359152,
      "componentType": 5126,
      "count": 65532,
      "max": [
        1.0,
        1.0,
        0.0
      ],
      "min": [
        -1.0,
        -1.0,
        0.0
      ],
      "type": "VEC3"
    },
    {
      "bufferView": 2,
      "byteOffset": 1048512,
      "componentType": 5126,
      "count": 65532,
      "max": [
        0.8666666746139526,
        1.0,
        0.8666666746139526,
        1.0
      ],
      "min": [
        0.0,
        0.0,
        0.0,
        1.0
      ],
      "type": "VEC4"
    },
    {
      "bufferView": 0,
      "byteOffset": 615264,
      "componentType": 5125,
      "count": 122961,
      "type": "SCALAR"
    },
    {
      "bufferView": 1,
      "byteOffset": 3145536,
      "componentType": 5126,
      "count": 65534,
      "max": [
        63.0,
        61.0,
        28.0
      ],
      "min": [
        -63.0,
        -61.0,
        0.0
      ],
      "type": "VEC3"
    },
    {
      "bufferView": 1,
      "byteOffset": 3931944,
      "componentType": 5126,
      "count": 65534,
      "max": [
        1.0,
        1.0,
        0.0
      ],
      "min": [
        -1.0,
        0.0,
        -1.0
      ],
      "type": "VEC3"
    },
    {
      "bufferView": 2,
      "byteOffset": 2097024,
      "componentType": 5126,
      "count": 65534,
      "max": [
        0.8666666746139526,
        1.0,
        0.8666666746139526,
        1.0
      ],
      "min": [
        0.0,
        0.0,
        0.0,
        1.0
      ],
      "type": "VEC4"
    },
    {
      "bufferView": 0,
      "byteOffset": 1107108,
      "componentType": 5125,
      "count": 182136,
      "type": "SCALAR"
    },
    {
      "bufferView": 1,
      "byteOffset": 4718352,
      "componentType": 5126,
      "count": 21135,
      "max": [
        63.0,
        61.0,
        27.0
      ],
      "min": [
        -63.0,
        -61.0,
        0.0
      ],
      "type": "VEC3"
    },
    {
      "bufferView": 1,
      "byteOffset": 4971972,
      "componentType": 5126,
      "count": 21135,
      "max": [
        0.0,
        0.0,
        1.0
      ],
      "min": [
        0.0,
        0.0,
        -1.0
      ],
      "type": "VEC3"
    },
    {
      "bufferView": 2,
      "byteOffset": 3145568,
      "componentType": 5126,
      "count": 21135,
      "max": [
        0.8666666746139526,
        1.0,
        0.8666666746139526,
        1.0
      ],
      "min": [
        0.0,
        0.0,
        0.0,
        1.0
      ],
      "type": "VEC4"
    },
    {
      "bufferView": 0,
      "byteOffset": 1835652,
      "componentType": 5125,
      "count": 42735,
      "type": "SCALAR"
    }
  ],
  "asset": {
    "extras": {
      "author": "WaxFreeOintment (https://sketchfab.com/WaxFreeOintment)",
      "license": "CC-BY-4.0 (http://creativecommons.org/licenses/by/4.0/)",
      "source": "https://sketchfab.com/3d-models/new-years-resolution-plant-a-garden-voxel-f44de04b825e497ea7b537eef0f3b482",
      "title": "New Years Resolution: Plant a garden (Voxel)"
    },
    "generator": "Sketchfab-12.66.0",
    "version": "2.0"
  },
  "bufferViews": [
    {
      "buffer": 0,
      "byteLength": 2006592,
      "name": "floatBufferViews",
      "target": 34963
    },
    {
      "buffer": 0,
      "byteLength": 5225592,
      "byteOffset": 2006592,
      "byteStride": 12,
      "name": "floatBufferViews",
      "target": 34962
    },
    {
      "buffer": 0,
      "byteLength": 3483728,
      "byteOffset": 7232184,
      "byteStride": 16,
      "name": "floatBufferViews",
      "target": 34962
    }
  ],
  "buffers": [
    {
      "byteLength": 10715912,
      "uri": "scene.bin"
    }
  ],
  "materials": [
    {
      "doubleSided": true,
      "name": "Scene_-_Root",
      "pbrMetallicRoughness": {
        "metallicFactor": 0.0,
        "roughnessFactor": 0.6
      }
    }
  ],
  "meshes": [
    {
      "name": "Object_0",
      "primitives": [
        {
          "attributes": {
            "COLOR_0": 2,
            "NORMAL": 1,
            "POSITION": 0
          },
          "indices": 3,
          "material": 0,
          "mode": 4
        }
      ]
    },
    {
      "name": "Object_1",
      "primitives": [
        {
          "attributes": {
            "COLOR_0": 6,
            "NORMAL": 5,
            "POSITION": 4
          },
          "indices": 7,
          "material": 0,
          "mode": 4
        }
      ]
    },
    {
      "name": "Object_2",
      "primitives": [
        {
          "attributes": {
            "COLOR_0": 10,
            "NORMAL": 9,
            "POSITION": 8
          },
          "indices": 11,
          "material": 0,
          "mode": 4
        }
      ]
    },
    {
      "name": "Object_3",
      "primitives": [
        {
          "attributes": {
            "COLOR_0": 14,
            "NORMAL": 13,
            "POSITION": 12
          },
          "indices": 15,
          "material": 0,
          "mode": 4
        }
      ]
    }
  ],
  "nodes": [
    {
      "children": [
        1
      ],
      "matrix": [
        1.0,
        0.0,
        0.0,
        0.0,
        0.0,
        2.220446049250313e-16,
        -1.0,
        0.0,
        0.0,
        1.0,
        2.220446049250313e-16,
        0.0,
        0.0,
        0.0,
        0.0,
        1.0
      ],
      "name": "Sketchfab_model"
    },
    {
      "children": [
        2,
        3,
        4,
        5
      ],
      "name": "Geode"
    },
    {
      "mesh": 0,
      "name": "Object_2"
    },
    {
      "mesh": 1,
      "name": "Object_3"
    },
    {
      "mesh": 2,
      "name": "Object_4"
    },
    {
      "mesh": 3,
      "name": "Object_5"
    }
  ],
  "scene": 0,
  "scenes": [
    {
      "name": "Sketchfab_Scene",
      "nodes": [
        0
      ]
    }
  ]
}
